<svg xmlns="http://www.w3.org/2000/svg" version="1.1" xmlns:xlink="http://www.w3.org/1999/xlink" xmlns:svgjs="http://svgjs.dev/svgjs" width="1500" height="1500" viewBox="0 0 1500 1500"><g transform="matrix(1,0,0,1,-0.7499999999998863,-0.7489551677855388)"><svg viewBox="0 0 280 280" data-background-color="#ffffff" preserveAspectRatio="xMidYMid meet" height="1500" width="1500" xmlns="http://www.w3.org/2000/svg" xmlns:xlink="http://www.w3.org/1999/xlink"><g id="tight-bounds" transform="matrix(1,0,0,1,0.13999999999998636,0.1400461067755998)"><svg viewBox="0 0 279.72 279.72" height="279.72" width="279.72"><g><svg viewBox="0 0 279.72 279.72" height="279.72" width="279.72"><g><svg viewBox="0 0 279.72 279.72" height="279.72" width="279.72"><g id="textblocktransform"><svg viewBox="0 0 279.72 279.72" height="279.72" width="279.72" id="textblock"><g><svg viewBox="0 0 279.72 279.72" height="279.72" width="279.72"><g transform="matrix(1,0,0,1,73.95644138435325,73.92936372216631)"><svg viewBox="0 0 131.80711723129352 131.8612725556674" height="131.8612725556674" width="131.80711723129352"><g id="icon-0"><svg xmlns="http://www.w3.org/2000/svg" data-name="Layer 1" viewBox="1.9914483139484447 1.9792198461133779 60.008551686051554 60.03320727863281" x="0" y="0" height="131.8612725556674" width="131.80711723129352" class="icon-xg-0" data-fill-palette-color="accent" id="xg-0"><path class="cls-1" d="M61 31H31a1 1 0 0 0-1 1V61a1 1 0 0 0 1 1H61a1 1 0 0 0 1-1V32A1 1 0 0 0 61 31Zm-1 5.5a1.5 1.5 0 0 1-3 0V33h3Zm-5 0a1.5 1.5 0 0 1-3 0V33h3Zm-5 0a1.5 1.5 0 0 1-3 0V33h3Zm-5 0a1.5 1.5 0 0 1-3 0V33h3Zm-5 0a1.5 1.5 0 0 1-3 0V33h3ZM32 33h3v3.5a1.5 1.5 0 0 1-3 0Zm4 27V50h6V60Zm8 0V49a1 1 0 0 0-1-1H35a1 1 0 0 0-1 1V60H32V39.649a3.446 3.446 0 0 0 4-0.707 3.483 3.483 0 0 0 5 0 3.483 3.483 0 0 0 5 0 3.483 3.483 0 0 0 5 0 3.483 3.483 0 0 0 5 0 3.446 3.446 0 0 0 4 0.707V60Z" stroke="#000000" stroke-miterlimit="10" fill="#000000" data-fill-palette-color="accent"></path><path class="cls-1" d="M20.1 55a1 1 0 0 0 0.965-0.741l2.684-10v-0.007h0L24.6 41H28V39H23.826a1 1 0 0 0-0.968 0.748L22.01 43H4a1 1 0 0 0-0.966 1.259l2.683 10A1 1 0 0 0 6.683 55H8.5v1.184a3 3 0 1 0 2 0V55h6v1.184a3 3 0 1 0 2 0V55ZM9.5 60a1 1 0 1 1 1-1A1 1 0 0 1 9.5 60Zm8 0a1 1 0 1 1 1-1A1 1 0 0 1 17.5 60ZM5.3 45H21.479l-2.146 8H7.45Z" stroke="#000000" stroke-miterlimit="10" fill="#000000" data-fill-palette-color="accent"></path><path class="cls-1" d="M55 12H49.941a9 9 0 0 0-17.882 0h-8.11A11 11 0 1 0 7.465 22.49c0.012 0.008 0.021 0.019 0.034 0.027s0.033 0.015 0.049 0.024a10.939 10.939 0 0 0 2.508 1.047c0.082 0.023 0.165 0.043 0.248 0.064q0.522 0.132 1.063 0.213c0.1 0.016 0.2 0.034 0.306 0.047a10.049 10.049 0 0 0 2.654 0c0.1-0.013 0.2-0.031 0.306-0.047q0.542-0.081 1.063-0.213c0.083-0.021 0.166-0.041 0.248-0.064a10.939 10.939 0 0 0 2.508-1.047c0.016-0.009 0.033-0.015 0.049-0.024s0.022-0.019 0.034-0.027A11 11 0 0 0 23.949 14h8.11a9 9 0 0 0 17.882 0H54V25.586l-2.293-2.293-1.414 1.414 4 4a1 1 0 0 0 1.414 0l4-4-1.414-1.414L56 25.586V13A1 1 0 0 0 55 12ZM13 14a3 3 0 1 1 3-3A3 3 0 0 1 13 14Zm-0.856 2h1.712A3.147 3.147 0 0 1 17 19.144V21.05l-0.07 0.034a8.487 8.487 0 0 1-0.846 0.36l-0.072 0.026a9.111 9.111 0 0 1-6.024 0l-0.072-0.026a8.487 8.487 0 0 1-0.846-0.36L9 21.05V19.144A3.147 3.147 0 0 1 12.144 16ZM19 19.689v-0.545a5.126 5.126 0 0 0-2.641-4.466 5 5 0 1 0-6.718 0A5.126 5.126 0 0 0 7 19.144v0.545a9 9 0 1 1 12 0ZM34 13a7 7 0 0 1 6-6.92V8.039a3.207 3.207 0 0 0-2.251 3.037c0 2.258 1.78 2.8 2.958 3.163 1.313 0.4 1.544 0.589 1.544 1.254a1.252 1.252 0 0 1-2.5 0h-2A3.206 3.206 0 0 0 40 18.53v1.39A7 7 0 0 1 34 13Zm8 6.92V18.53a3.206 3.206 0 0 0 2.251-3.037c0-2.262-1.781-2.806-2.96-3.167-1.312-0.4-1.542-0.588-1.542-1.25a1.252 1.252 0 0 1 2.5 0h2A3.207 3.207 0 0 0 42 8.039V6.08a6.991 6.991 0 0 1 0 13.84Z" stroke="#000000" stroke-miterlimit="10" fill="#000000" data-fill-palette-color="accent"></path><path class="cls-1" d="M14 41V29.414l2.293 2.293 1.414-1.414-4-4a1 1 0 0 0-1.414 0l-4 4 1.414 1.414L12 29.414V41Z" stroke="#000000" stroke-miterlimit="10" fill="#000000" data-fill-palette-color="accent"></path><path class="cls-1" d="M57 42H47a1 1 0 0 0-1 1v7a1 1 0 0 0 1 1H57a1 1 0 0 0 1-1V43A1 1 0 0 0 57 42Zm-1 7H48V44h8Z" stroke="#000000" stroke-miterlimit="10" fill="#000000" data-fill-palette-color="accent"></path></svg></g></svg></g><g id="text-0"><path d="M147.412 9.234v0c-0.701-0.031-1.042-0.255-1.024-0.671v0c0.029-0.655 0.831-1.567 2.407-2.736 1.575-1.163 3.305-2.07 5.188-2.722v0c0.022-0.045 0.036-0.134 0.042-0.267v0c0.052-1.17-0.726-1.791-2.333-1.862-1.613-0.071-3.628 0.535-6.043 1.82-2.416 1.291-4.551 2.84-6.406 4.646-1.855 1.806-2.812 3.361-2.87 4.663v0c-0.072 1.64 1.402 2.527 4.424 2.661v0c1.765 0.078 3.305-0.271 4.618-1.048v0c0.084-0.102 0.179-0.151 0.285-0.147v0c0.179 0.008 0.262 0.147 0.249 0.419-0.012 0.278-0.109 0.452-0.291 0.523v0c-3.319 1.337-6.088 2.908-8.308 4.711v0c-0.942 0.767-1.813 1.739-2.613 2.916-0.794 1.177-1.214 2.278-1.259 3.303-0.046 1.032 0.185 1.89 0.691 2.575 0.506 0.685 1.487 1.06 2.942 1.124v0c0.497-0.005 1.059-0.056 1.686-0.154 0.634-0.104 1.708-0.501 3.223-1.189 1.514-0.688 2.977-1.627 4.388-2.818v0c0.216-0.249 0.391-0.37 0.523-0.364v0c0.151 0.033 0.222 0.139 0.214 0.317v0c-0.02 0.443-0.661 1.094-1.925 1.953-1.257 0.852-2.821 1.628-4.694 2.326-1.866 0.699-3.49 1.018-4.872 0.958v0c-1.977-0.087-3.3-0.822-3.967-2.203v0c-0.26-0.561-0.375-1.193-0.344-1.894v0c0.076-1.719 1.156-3.606 3.242-5.66 2.085-2.061 4.747-3.749 7.985-5.063v0c-1.235 0.204-2.371 0.283-3.409 0.237v0c-3.28-0.145-4.879-1.127-4.799-2.945v0c0.049-1.117 0.721-2.436 2.013-3.956 1.293-1.52 2.832-2.919 4.618-4.198 1.792-1.272 3.718-2.353 5.778-3.243 2.06-0.889 3.804-1.303 5.232-1.24v0c2.209 0.098 3.279 0.904 3.213 2.418v0c-0.007 0.152-0.022 0.267-0.045 0.346v0c1.16-0.313 2.024-0.457 2.593-0.432 0.575 0.025 0.938 0.061 1.088 0.108 0.157 0.047 0.229 0.212 0.217 0.496-0.013 0.284-0.126 0.448-0.34 0.492v0c-1.19-0.053-2.499 0.111-3.927 0.492v0c-0.63 1.357-1.695 2.595-3.196 3.715-1.494 1.12-2.892 1.651-4.194 1.593zM147.698 8.144v0c-0.011 0.238 0.193 0.366 0.61 0.385v0c0.78 0.034 1.724-0.401 2.83-1.306 1.106-0.899 1.918-1.873 2.435-2.924v0c-1.535 0.562-2.894 1.24-4.075 2.036-1.181 0.789-1.781 1.392-1.8 1.809z" fill="#6b7280" data-fill-palette-color="primary"></path><path d="M3.904 147.931c0-6.066 4.917-10.983 10.983-10.983 6.066 0 10.983 4.917 10.984 10.983 0 6.066-4.917 10.983-10.984 10.983-6.066 0-10.983-4.917-10.983-10.983z" fill="#6b7280" data-fill-palette-color="primary"></path><path d="M253.849 147.931c0-6.066 4.917-10.983 10.984-10.983 6.066 0 10.983 4.917 10.983 10.983 0 6.066-4.917 10.983-10.983 10.983-6.066 0-10.983-4.917-10.984-10.983z" fill="#6b7280" data-fill-palette-color="primary"></path></g><g id="text-1"><path d="M37.862 189.543v0c-0.261-0.68-0.191-1.097 0.21-1.251v0c0.63-0.242 1.827 0.141 3.592 1.15 1.758 1.012 3.332 2.274 4.723 3.788v0c0.059 0.006 0.153-0.016 0.283-0.066v0c1.13-0.435 1.396-1.431 0.797-2.987-0.601-1.563-2.013-3.222-4.233-4.977-2.224-1.761-4.576-3.147-7.057-4.157-2.481-1.01-4.351-1.273-5.611-0.788v0c-1.588 0.611-1.819 2.377-0.695 5.299v0c0.658 1.711 1.629 3.026 2.91 3.944v0c0.13 0.042 0.214 0.113 0.252 0.211v0c0.067 0.173-0.033 0.311-0.299 0.413-0.266 0.102-0.469 0.081-0.609-0.063v0c-2.643-2.593-5.279-4.568-7.907-5.926v0c-1.124-0.582-2.408-1.006-3.851-1.273-1.443-0.267-2.662-0.21-3.657 0.173-0.995 0.383-1.714 0.954-2.16 1.714-0.443 0.766-0.393 1.853 0.149 3.261v0c0.208 0.466 0.493 0.977 0.855 1.533 0.356 0.558 1.175 1.413 2.456 2.566 1.28 1.153 2.778 2.151 4.492 2.994v0c0.326 0.109 0.512 0.225 0.56 0.349v0c0.032 0.158-0.038 0.27-0.211 0.336v0c-0.426 0.164-1.308-0.174-2.646-1.014-1.337-0.84-2.725-2.005-4.163-3.493-1.436-1.483-2.41-2.892-2.923-4.226v0c-0.734-1.909-0.582-3.467 0.456-4.676v0c0.418-0.48 0.967-0.851 1.646-1.112v0c1.662-0.639 3.901-0.395 6.719 0.734 2.815 1.123 5.517 2.948 8.106 5.477v0c-0.701-1.085-1.245-2.131-1.632-3.138v0c-1.219-3.169-0.949-5.092 0.812-5.769v0c1.081-0.416 2.608-0.326 4.581 0.269 1.98 0.593 3.946 1.474 5.901 2.644 1.948 1.173 3.769 2.553 5.465 4.142 1.694 1.582 2.807 3.065 3.339 4.449v0c0.825 2.144 0.508 3.496-0.949 4.056v0c-0.154 0.059-0.273 0.091-0.357 0.095v0c0.778 0.97 1.272 1.73 1.483 2.28 0.214 0.556 0.331 0.915 0.351 1.078 0.022 0.169-0.105 0.307-0.384 0.413-0.278 0.107-0.481 0.068-0.608-0.117v0c-0.444-1.155-1.141-2.33-2.091-3.525v0c-1.548-0.043-3.162-0.542-4.842-1.498-1.686-0.954-2.77-2.058-3.253-3.312zM39.004 189.359v0c-0.222 0.086-0.256 0.329-0.102 0.73v0c0.29 0.754 1.091 1.47 2.402 2.151 1.317 0.677 2.58 1.046 3.787 1.106v0c-1.166-1.225-2.371-2.237-3.614-3.035-1.247-0.79-2.071-1.107-2.473-0.952z" fill="#000000" data-fill-palette-color="secondary"></path><path d="M29.018 218.914v0c-0.701-0.988-0.514-1.863 0.561-2.625v0c1.431-1.014 4.032-1.694 7.803-2.04 3.771-0.345 7.424-0.274 10.959 0.214 3.531 0.482 5.702 1.296 6.514 2.441v0c0.295 0.416 0.145 0.834-0.449 1.255v0c-0.923 0.655-2.979 0.948-6.167 0.88-3.188-0.068-6.327-0.346-9.415-0.834-3.088-0.488-5.315-0.974-6.681-1.458v0c-0.382 0.206-0.634 0.352-0.759 0.44-0.119 0.084-0.249 0.193-0.39 0.326-0.136 0.129-0.27 0.358-0.401 0.686-0.136 0.323-0.075 0.666 0.181 1.028 0.257 0.362 0.93 0.854 2.02 1.476 1.081 0.621 2.089 1.127 3.024 1.519v0l1.411 0.582c-0.028 0.052-0.109 0.126-0.244 0.222-0.13 0.092-0.306 0.071-0.531-0.062v0c-4.13-1.534-6.609-2.884-7.436-4.05zM52.774 217.539v0c0.471-0.366 0.612-0.681 0.424-0.946v0c-0.482-0.68-1.985-1.169-4.507-1.465-2.523-0.297-5.315-0.333-8.378-0.109-3.068 0.228-5.513 0.687-7.334 1.379v0c1.405 0.391 3.349 0.798 5.831 1.221 2.477 0.426 5.152 0.68 8.024 0.761 2.867 0.085 4.847-0.195 5.94-0.841z" fill="#000000" data-fill-palette-color="secondary"></path><path d="M51.767 239.669v0c-1.191-1.09-1.55-1.894-1.077-2.411v0c0.563-0.615 1.937-0.7 4.121-0.253 2.184 0.447 3.843 1.188 4.975 2.224v0c0.576 0.527 0.701 0.969 0.375 1.326v0c-0.183 0.2-0.531 0.281-1.043 0.243-0.517-0.033-0.979-0.106-1.387-0.22-0.403-0.118-0.625-0.195-0.664-0.23v0c-0.117-0.107-0.153-0.23-0.107-0.368v0c0.091-0.177 0.327-0.225 0.71-0.144 0.388 0.077 0.662 0.027 0.823-0.149 0.165-0.181 0.023-0.477-0.426-0.887-0.444-0.407-1.431-0.735-2.96-0.986-1.529-0.241-2.474-0.164-2.836 0.231v0c-0.273 0.298-0.062 0.764 0.631 1.398v0c0.122 0.112 0.351 0.303 0.686 0.574 0.335 0.271 0.458 0.455 0.369 0.553-0.094 0.103-0.915 0.01-2.465-0.277-1.544-0.283-2.518-0.205-2.92 0.235v0c-0.456 0.498-0.361 1.042 0.284 1.632 0.649 0.594 1.536 1.096 2.659 1.505v0c1.84 0.616 3.597 1.089 5.27 1.418v0l0.9 0.164c-0.016 0.057-0.08 0.146-0.192 0.268-0.107 0.117-0.287 0.132-0.539 0.045v0c-1.712-0.247-3.487-0.621-5.327-1.12-1.849-0.499-3.277-1.209-4.283-2.129-1.001-0.916-1.195-1.708-0.583-2.377 0.608-0.664 2.276-0.752 5.006-0.265z" fill="#000000" data-fill-palette-color="secondary"></path><path d="M76.968 261.956l0.433 0.057c1.392 0.147 2.958 0.178 4.698 0.093v0l0.913-0.053c-0.002 0.059-0.043 0.161-0.123 0.306-0.077 0.139-0.248 0.196-0.514 0.171v0c-1.722 0.163-3.384 0.218-4.988 0.167-1.604-0.052-2.936-0.37-3.996-0.954v0c-1.345-0.741-1.751-1.595-1.219-2.563v0c0.638-1.16 2.165-2.019 4.582-2.578 2.419-0.565 4.42-0.411 6.002 0.46v0c0.661 0.364 0.835 0.83 0.523 1.398v0c-0.182 0.331-0.706 0.582-1.572 0.756v0c-1.2 0.231-1.907 0.287-2.122 0.169-0.215-0.118-0.269-0.273-0.164-0.464v0c0.038-0.07 0.126-0.112 0.263-0.128v0c0.312-0.017 0.695-0.089 1.15-0.216 0.459-0.133 0.747-0.307 0.865-0.522v0c0.182-0.331 0.119-0.58-0.188-0.749v0c-0.661-0.364-1.958-0.3-3.891 0.192-1.93 0.486-3.098 1.098-3.503 1.835v0c-0.453 0.823-0.231 1.482 0.668 1.977v0c0.591 0.326 1.319 0.541 2.183 0.646z" fill="#000000" data-fill-palette-color="secondary"></path><path d="M104.791 260.585v0c1.784 0.423 3.542 0.827 5.274 1.21v0c3.66-2.927 6.003-4.27 7.026-4.026v0c0.367 0.087 0.504 0.327 0.411 0.72v0c-0.298 1.256-1.589 2.613-3.874 4.07v0l3.004 0.672c2.01 0.388 3.237 0.635 3.681 0.741 0.451 0.107 0.663 0.215 0.638 0.324v0c-0.118 0.496-0.521 0.676-1.21 0.54v0l-7.475-1.437c-1.574 0.899-3.463 1.794-5.668 2.686v0c-2.768 2.806-4.291 4.798-4.571 5.977v0c-0.144 0.605 0.171 1 0.944 1.183 0.773 0.183 2.099 0.056 3.978-0.383v0l3.619-1.101c0.02 0.059 0.011 0.169-0.028 0.331-0.037 0.155-0.186 0.255-0.449 0.301v0c-0.975 0.381-2.03 0.743-3.165 1.086v0c-2.38 0.571-4.134 0.723-5.261 0.456v0c-0.528-0.125-0.912-0.329-1.152-0.61-0.233-0.28-0.338-0.526-0.314-0.738v0l-0.012-0.339c0.211-0.889 1.172-2.246 2.884-4.071 1.705-1.827 3.647-3.645 5.825-5.455v0c-1.274-0.248-2.475-0.506-3.602-0.773-1.127-0.267-1.659-0.533-1.597-0.797v0c0.118-0.496 0.482-0.685 1.094-0.567zM116.09 259.021v0c0.031-0.129-0.006-0.205-0.109-0.23v0c-0.605-0.144-2.272 0.917-4.999 3.181v0l1.971 0.468c1.849-1.255 2.895-2.395 3.137-3.419zM111.59 263.28v0c-0.844-0.2-1.41-0.321-1.7-0.363v0c-0.319 0.285-0.766 0.706-1.34 1.264-0.573 0.551-0.968 0.927-1.186 1.127v0c1.602-0.674 3.011-1.35 4.226-2.028z" fill="#000000" data-fill-palette-color="secondary"></path><path d="M130.622 276.277v0c-0.114 0.05-0.217 0.073-0.31 0.07-0.093-0.003-0.137-0.057-0.134-0.163 0.003-0.106 0.046-0.201 0.128-0.284v0c1.124-0.582 2.368-1.554 3.734-2.916v0c-1.206-0.414-1.798-0.965-1.778-1.653 0.021-0.688 0.504-1.441 1.45-2.26 0.939-0.819 1.812-1.216 2.619-1.192v0c0.542 0.016 0.804 0.346 0.784 0.987v0c-0.03 0.999-0.562 2.049-1.596 3.15v0c1.29 0.258 1.929 0.588 1.917 0.992v0c-0.016 0.536-0.267 0.939-0.752 1.209-0.478 0.27-1.04 0.76-1.683 1.469-0.637 0.709-0.967 1.427-0.99 2.155v0c-0.005 0.159 0.044 0.309 0.146 0.451 0.102 0.136 0.328 0.209 0.678 0.219 0.351 0.011 1.1-0.231 2.247-0.726 1.147-0.488 2.162-0.987 3.046-1.497v0l1.314-0.774c0.025 0.054 0.035 0.163 0.03 0.329-0.005 0.159-0.131 0.287-0.379 0.385v0c-3.707 2.37-6.276 3.534-7.705 3.491v0c-0.701-0.021-1.041-0.383-1.02-1.084v0c0.017-0.562 0.23-1.149 0.64-1.759 0.409-0.61 0.855-1.11 1.337-1.499 0.482-0.389 0.927-0.76 1.335-1.111 0.401-0.352 0.604-0.581 0.606-0.687 0.003-0.106-0.163-0.177-0.5-0.214-0.336-0.043-0.774-0.126-1.313-0.248v0c-1.53 1.543-2.814 2.596-3.851 3.16zM133.294 270.737v0c-0.016 0.536 0.564 0.931 1.742 1.185v0c0.727-0.839 1.101-1.576 1.12-2.211 0.019-0.635-0.173-0.959-0.577-0.971-0.404-0.012-0.88 0.208-1.43 0.662-0.557 0.46-0.842 0.905-0.855 1.335z" fill="#000000" data-fill-palette-color="secondary"></path><path d="M170.405 272.786v0c-0.711 0.671-1.606 1.121-2.688 1.35v0l-0.476 0.1c-0.538 0.973-1.155 1.8-1.85 2.482-0.695 0.681-1.334 1.084-1.916 1.207v0c-0.816 0.173-1.335-0.269-1.559-1.325-0.222-1.049 0.086-2.393 0.924-4.031v0c-0.172-0.268-0.302-0.613-0.391-1.033v0c-0.196-0.926 0.04-1.811 0.707-2.656 0.661-0.843 1.373-1.346 2.137-1.508v0c1.612-0.341 2.603 0.36 2.971 2.102v0c0.245 1.159 0.011 2.531-0.703 4.116v0l0.476-0.1c0.842-0.178 1.525-0.529 2.051-1.053v0c0.061-0.094 0.157-0.155 0.286-0.182 0.136-0.029 0.214 0.002 0.233 0.093 0.019 0.091-0.048 0.237-0.202 0.438zM165.644 269.034v0c0.119-0.079 0.22-0.128 0.304-0.146 0.078-0.016 0.13 0.037 0.156 0.16 0.025 0.117-0.086 0.313-0.333 0.588v0c-0.883 1.039-1.517 1.944-1.902 2.716v0c0.771 0.798 1.783 1.216 3.036 1.255v0c0.767-1.427 1.039-2.669 0.816-3.724v0c-0.129-0.609-0.424-1.03-0.886-1.264-0.462-0.234-1.001-0.286-1.616-0.155-0.622 0.131-1.16 0.431-1.616 0.9-0.449 0.467-0.631 0.905-0.544 1.312 0.088 0.414 0.195 0.73 0.321 0.947v0c0.638-1.014 1.392-1.877 2.264-2.589zM163.499 273.333v0c-0.277 0.803-0.323 1.641-0.138 2.515v0c0.1 0.473 0.364 0.664 0.791 0.574v0c0.712-0.151 1.485-0.865 2.317-2.144v0c-1.237 0.038-2.227-0.277-2.97-0.945z" fill="#000000" data-fill-palette-color="secondary"></path><path d="M198.233 242.35v0c-0.898 0.549-1.587 0.431-2.067-0.354v0c-0.732-1.197-0.754-2.731-0.067-4.602 0.693-1.874 1.754-3.71 3.185-5.508v0c-0.571-0.566-1.299-0.824-2.183-0.772-0.884 0.052-1.814 0.376-2.791 0.973-0.977 0.597-1.878 1.4-2.704 2.41-0.82 1.006-1.488 2.135-2.002 3.388-0.518 1.247-0.73 2.607-0.637 4.078 0.096 1.477 0.552 2.882 1.366 4.215v0c0.283 0.463 1.451 1.599 3.504 3.409 2.058 1.806 3.536 3.443 4.434 4.911v0c0.228 0.373 0.504 0.933 0.829 1.681v0c0.817-0.631 1.42-1.066 1.81-1.304v0c2.231-1.364 3.705-1.458 4.423-0.284v0c0.255 0.418 0.342 0.838 0.259 1.262-0.085 0.432-0.315 1.015-0.689 1.747v0c-0.255 0.001-0.411-0.044-0.466-0.134-0.055-0.09-0.057-0.202-0.006-0.334v0c0.451-0.811 0.557-1.411 0.319-1.8v0c-0.48-0.785-1.629-0.622-3.448 0.49v0c-0.666 0.407-1.281 0.849-1.843 1.324v0c0.508 1.706 0.616 3.526 0.323 5.458-0.287 1.929-0.842 3.692-1.666 5.289-0.827 1.592-1.769 3.013-2.827 4.265-1.056 1.243-2.089 2.173-3.1 2.791v0c-1.564 0.956-2.628 0.974-3.19 0.054v0c-0.787-1.288-0.776-3.078 0.032-5.373 0.809-2.294 2.051-4.563 3.729-6.806 1.677-2.243 3.474-4.203 5.39-5.878v0c-0.303-0.699-0.574-1.243-0.812-1.633v0c-0.604-0.988-1.911-2.315-3.923-3.979-2.011-1.665-3.48-3.256-4.408-4.775-0.925-1.513-1.25-3.39-0.975-5.63 0.27-2.236 0.982-4.262 2.138-6.078 1.153-1.807 2.467-3.16 3.94-4.061v0c2.321-1.419 4.194-1.222 5.621 0.59v0c1.036-1.199 1.782-1.939 2.239-2.218 0.463-0.283 0.722-0.418 0.777-0.405 0.055 0.013 0.153 0.136 0.294 0.367 0.138 0.226 0.125 0.439-0.039 0.64v0c-1.006 0.677-1.936 1.451-2.792 2.324v0c1.094 1.891 1.347 3.885 0.76 5.982-0.582 2.094-1.494 3.52-2.737 4.28zM189.818 273.315v0c0.411 0.672 1.283 0.601 2.615-0.214v0c1.864-1.139 3.535-3.081 5.016-5.824v0c0.736-1.334 1.218-2.835 1.447-4.503 0.226-1.674 0.096-3.294-0.388-4.86v0c-1.757 1.516-3.404 3.233-4.939 5.149-1.53 1.913-2.7 3.838-3.509 5.776-0.807 1.929-0.888 3.421-0.242 4.476zM197.152 241.114v0c0.266 0.435 0.627 0.512 1.085 0.233v0c0.875-0.535 1.566-1.772 2.072-3.711 0.51-1.933 0.339-3.621-0.512-5.063v0c-1.299 1.492-2.229 3.023-2.79 4.592-0.552 1.571-0.504 2.887 0.145 3.949z" fill="#000000" data-fill-palette-color="secondary"></path><path d="M226.313 245.868v0c0.173-0.173 0.373-1.891 0.6-5.153 0.222-3.258 0.486-5.039 0.79-5.343 0.309-0.309 0.596-0.33 0.863-0.064v0c0.211 0.21 0.345 0.728 0.402 1.551 0.061 0.819 0.163 1.673 0.303 2.562 0.146 0.884 0.418 1.525 0.816 1.923v0c0.211 0.21 0.473 0.159 0.786-0.155 0.313-0.314 0.683-1.058 1.108-2.233 0.43-1.17 0.761-2.252 0.994-3.244v0l0.336-1.489c0.056 0.019 0.143 0.086 0.26 0.204 0.112 0.112 0.12 0.292 0.022 0.54v0c-0.811 4.325-1.722 6.993-2.733 8.005v0c-0.496 0.496-1.011 0.478-1.544-0.055v0c-0.361-0.36-0.665-0.931-0.914-1.712-0.249-0.781-0.413-1.479-0.493-2.092v0l-0.141-0.884c-0.205 1.507-0.36 3.124-0.467 4.851-0.106 1.727-0.192 3.031-0.257 3.911-0.065 0.889-0.193 1.43-0.385 1.622-0.192 0.192-0.426 0.15-0.702-0.126-0.276-0.276-0.785-1.682-1.526-4.218-0.751-2.536-1.487-5.339-2.211-8.409-0.728-3.065-1.221-6.013-1.48-8.845-0.259-2.831-0.055-4.582 0.614-5.251v0c0.285-0.286 0.618-0.351 0.997-0.198v0c0.15 0.037 0.293 0.124 0.428 0.26v0c1.316 1.314 1.872 5.811 1.666 13.492v0c-0.018 1.47-0.073 2.86-0.165 4.17v0c0.995 3.893 1.673 6.02 2.033 6.38zM222.155 223.083v0c-0.192-0.192-0.335-0.241-0.428-0.147v0c-0.384 0.384-0.345 2.022 0.116 4.914 0.461 2.901 1.121 6.151 1.979 9.75v0c0.373-8.195-0.182-13.034-1.667-14.517z" fill="#000000" data-fill-palette-color="secondary"></path><path d="M251.259 211.304v0c0.004 0.977-0.281 1.939-0.854 2.884v0l-0.252 0.416c0.342 1.058 0.523 2.074 0.545 3.046 0.022 0.973-0.122 1.714-0.43 2.224v0c-0.432 0.713-1.11 0.79-2.033 0.231-0.917-0.556-1.687-1.699-2.309-3.431v0c-0.313-0.058-0.654-0.199-1.021-0.422v0c-0.809-0.491-1.294-1.268-1.454-2.332-0.163-1.059-0.043-1.922 0.362-2.59v0c0.854-1.409 2.043-1.653 3.565-0.73v0c1.013 0.614 1.854 1.723 2.523 3.328v0l0.252-0.416c0.446-0.736 0.658-1.474 0.635-2.216v0c-0.027-0.109-0.006-0.22 0.062-0.333 0.072-0.119 0.148-0.154 0.227-0.106 0.079 0.048 0.14 0.197 0.182 0.447zM245.265 212.21v0c0.023-0.141 0.057-0.248 0.102-0.321 0.041-0.068 0.116-0.069 0.223-0.004 0.102 0.062 0.169 0.277 0.201 0.644v0c0.154 1.355 0.381 2.437 0.681 3.245v0c1.109-0.017 2.107-0.469 2.992-1.356v0c-0.516-1.536-1.236-2.583-2.158-3.142v0c-0.532-0.322-1.041-0.395-1.528-0.218-0.487 0.177-0.893 0.535-1.219 1.072-0.329 0.543-0.479 1.142-0.449 1.795 0.033 0.647 0.228 1.079 0.585 1.295 0.362 0.22 0.666 0.357 0.911 0.412v0c-0.304-1.159-0.417-2.3-0.341-3.422zM246.934 216.716v0c0.396 0.751 0.976 1.358 1.741 1.821v0c0.413 0.25 0.733 0.189 0.959-0.185v0c0.377-0.623 0.384-1.675 0.021-3.156v0c-0.818 0.928-1.725 1.435-2.721 1.52z" fill="#000000" data-fill-palette-color="secondary"></path><path d="M257.76 186.483v0c-0.512-1.973-0.61-3.565-0.295-4.775 0.315-1.211 0.979-1.684 1.992-1.42v0c1.383 0.361 2.602 1.605 3.654 3.732 1.048 2.12 1.348 4.041 0.899 5.765v0c-0.042 0.16-0.173 0.335-0.393 0.523-0.215 0.197-0.506 0.248-0.871 0.153-0.365-0.095-0.721-0.502-1.067-1.222-0.341-0.711-0.496-1.128-0.464-1.25 0.03-0.115 0.079-0.226 0.148-0.331 0.07-0.112 0.175-0.211 0.313-0.298 0.133-0.089 0.237-0.123 0.314-0.102 0.077 0.02 0.166 0.112 0.267 0.274v0c0.111 0.309 0.278 0.654 0.5 1.034 0.224 0.373 0.394 0.575 0.51 0.604 0.115 0.03 0.206-0.083 0.273-0.339 0.068-0.263 0.022-0.859-0.139-1.79-0.159-0.938-0.566-1.936-1.22-2.996-0.66-1.061-1.51-1.727-2.547-1.998v0c-0.653-0.17-1.078 0.122-1.275 0.879v0c-0.299 1.146-0.21 2.616 0.266 4.409v0c3.174 3.228 5.208 5.263 6.104 6.105v0c3.577 3.36 6.303 6.232 8.179 8.616 1.869 2.382 2.62 4.277 2.253 5.686v0c-0.122 0.468-0.468 0.627-1.038 0.478v0c-2.299-0.599-5.067-2.945-8.303-7.037-3.237-4.086-5.65-8.162-7.237-12.228v0c-3.669-3.767-5.98-6.069-6.932-6.905v0c0.264 0.377 0.542 0.965 0.833 1.766v0l0.946 2.627c0.01 0.173-0.002 0.324-0.035 0.452-0.033 0.128-0.121 0.187-0.262 0.178v0c-0.9-2.847-1.833-5.026-2.801-6.537v0c-0.239-0.37-0.396-0.579-0.473-0.626v0c-0.057-0.097-0.035-0.286 0.066-0.567 0.099-0.275 0.267-0.382 0.504-0.32v0c0.102 0.027 0.412 0.309 0.929 0.847 0.516 0.538 2.65 2.743 6.402 6.613zM264.117 194.491v0l-4.573-4.578c1.484 3.595 3.779 7.216 6.884 10.864 3.104 3.654 5.555 5.716 7.356 6.185v0c0.231 0.06 0.367 0.01 0.408-0.15v0c0.427-1.64-2.931-5.747-10.075-12.321z" fill="#000000" data-fill-palette-color="secondary"></path></g></svg></g></svg></g></svg></g></svg></g><defs></defs></svg><rect width="279.72" height="279.72" fill="none" stroke="none" visibility="hidden"></rect></g></svg></g></svg>